<svg xmlns:inkscape="http://www.inkscape.org/namespaces/inkscape" xmlns:rdf="http://www.w3.org/1999/02/22-rdf-syntax-ns#" xmlns="http://www.w3.org/2000/svg" xmlns:sodipodi="http://sodipodi.sourceforge.net/DTD/sodipodi-0.dtd" xmlns:cc="http://creativecommons.org/ns#" xmlns:xlink="http://www.w3.org/1999/xlink" xmlns:dc="http://purl.org/dc/elements/1.1/" xmlns:svg="http://www.w3.org/2000/svg" xmlns:ns1="http://sozi.baierouge.fr" id="svg2" sodipodi:docname="Two-Edged-Sword.svg" viewBox="0 0 744.09 1052.4" sodipodi:version="0.32" inkscape:output_extension="org.inkscape.output.svg.inkscape" inkscape:version="0.46">
  <sodipodi:namedview id="base" bordercolor="#666666" inkscape:pageshadow="2" guidetolerance="10" pagecolor="#ffffff" gridtolerance="10000" inkscape:window-height="733" inkscape:zoom="0.5" objecttolerance="10" showgrid="false" borderopacity="1.0" inkscape:current-layer="layer1" inkscape:cx="247.34672" inkscape:cy="580.12952" inkscape:window-y="-3" inkscape:window-x="-3" inkscape:window-width="1280" inkscape:pageopacity="0.0" inkscape:document-units="px"/>
  <g id="layer1" inkscape:label="Layer 1" inkscape:groupmode="layer">
    <g id="g4220" transform="matrix(2.7186 -1.8786 1.8786 2.7186 -1824.6 -395.8)">
      <path id="path4222" sodipodi:nodetypes="cccccccc" style="stroke-linejoin:round;stroke:#000000;stroke-width:1.5638;fill:#ffffff" d="m426.37 544.22l12.05 8.32c-5.85 4.35-6.92 6.66-8.54 12.37l-94.29 136.87c-10.15 14.7-15.18 20.55-27.69 27.21 1.75-13.73 5.09-20.26 15.63-35.53l94.3-136.87c4.6-3.41 6.44-4.96 8.54-12.37z"/>
      <path id="path4224" style="fill-rule:evenodd;stroke:#000000;stroke-width:1.5638;fill:#ffffff" d="m308.14 728.98l112.03-162.28"/>
      <path id="path4226" sodipodi:nodetypes="cccccc" style="stroke-linejoin:round;stroke:#000000;stroke-width:1.5638;fill:#ffffff" d="m462.39 490.29c3.24-0.76 8.17 2.37 8.64 2.67 0.49 0.3 4.91 3.75 5.25 7.12-0.31 2.85-9.53 8.83-11.55 9.99-2.56-4.05-2.71-4.28-7.47-5.41 0.25-1.95 2.08-12.64 5.13-14.37z"/>
      <path id="path4228" sodipodi:nodetypes="ccccc" style="fill-rule:evenodd;stroke:#000000;stroke-width:1.5;fill:#ffffff" d="m429.68 542.03c2.77 4.23 7.3 6.33 10.15 5.78l25.16-37.69c-1.43-3.7-4.54-5.46-7.94-5.65l-27.37 37.56z"/>
      <path id="path4230" sodipodi:nodetypes="ccc" style="fill-rule:evenodd;stroke:#000000;stroke-width:1.5638;fill:#ffffff" d="m415.08 560.46c2.06 1.79 4.53 4.23 4.97 6.41 2.35-0.31 5 0.93 7.15 1.96"/>
      <path id="path4232" style="stroke-linejoin:round;stroke:#000000;stroke-width:1.5638;fill:#ffffff" d="m430.3 542.45c2.84 4.33 4.54 5.43 9.53 6.49 7.16 4.95 15.58 19.65 14.01 20.43l-8.91 1.7c0.28-9.72-5.71-19.9-15.25-17.55-1.06-9.42-12.71-11.76-23.24-9.04l-0.76-8.96c0.17-1.26 17.57 2.07 24.62 6.93zm-24.57-7.12c12.38-0.39 19.09 1.53 24.55 5.29m23.72 27.73c-4.03-11.7-8.21-17.3-13.66-21.07"/>
      <path id="path4234" style="stroke-linejoin:round;stroke:#000000;stroke-width:1.5638;fill:#ffffff" d="m428.95 541.23c-0.14-0.13-0.31-0.2-0.48-0.28-0.14-0.09-0.29-0.13-0.45-0.19-0.15-0.07-0.28-0.16-0.42-0.25-0.16-0.1-0.31-0.21-0.46-0.32-0.17-0.11-0.33-0.22-0.47-0.36-0.15-0.15-0.32-0.28-0.49-0.4-0.16-0.12-0.3-0.27-0.45-0.4-0.13-0.13-0.3-0.2-0.46-0.28-0.18-0.06-0.37-0.09-0.54-0.17-0.18-0.09-0.38-0.11-0.58-0.12-0.18-0.04-0.37-0.07-0.55-0.12-0.16-0.08-0.33-0.13-0.48-0.2-0.18-0.03-0.35-0.09-0.53-0.14-0.09-0.01-0.17-0.06-0.26-0.09-0.08-0.03-0.16-0.04-0.24-0.07-0.16-0.09-0.34-0.15-0.51-0.23-0.16-0.11-0.34-0.14-0.52-0.19-0.2-0.05-0.39-0.13-0.59-0.2-0.18-0.06-0.36-0.11-0.53-0.2-0.21-0.04-0.41-0.07-0.62-0.14-0.16-0.06-0.32-0.1-0.48-0.18-0.15-0.02-0.27-0.11-0.42-0.11-0.17 0-0.3-0.1-0.45-0.14-0.18-0.06-0.35-0.1-0.53-0.15-1.09-0.04 4.32 0.31-0.27-0.02-0.39-0.03 0.79 0.07 1.19 0.1 0.05 0.01-0.12 0-0.18-0.01-0.02 0.01-0.05 0.01-0.08 0.01-0.45-0.04-0.9-0.07-1.35-0.11-0.03 0-0.05-0.02-0.08-0.02-0.08-0.02-0.16-0.04-0.24-0.04-0.02-0.01-0.1-0.02-0.07-0.01 0.4 0.03 0.81 0.06 1.21 0.1h-0.07c-0.24-0.02-1.04-0.04-1.51-0.14 3.18 0.27-0.1 0-0.15 0-0.07-0.01-0.23-0.06-0.3-0.09-0.08-0.03-0.16-0.04-0.24-0.05l1.3-0.09c0.08 0.02 0.16 0.05 0.23 0.07 0.08 0.02 0.16 0.04 0.24 0.05 0.02 0.01 0.1 0.01 0.07 0.01-1.23-0.1-2.09-0.17 0.15 0.01 0.11 0.02 0.16 0.02 0.16 0.02-2.6-0.19-0.49-0.05 0.28 0.02 0.08 0.02 0.16 0.04 0.24 0.05 0.02 0.01 0.1 0.01 0.07 0.01-1.28-0.09-1.6-0.1-1.12-0.09 0.46-0.04 1.45 0.1 1.55 0.11 0.39 0.03-1.58-0.13-1.19-0.09 1.48 0.13 0.92 0 1.46 0.12 0.17 0.05 0.35 0.1 0.52 0.16 0.15 0.06 0.3 0.11 0.46 0.12 0.14 0.04 0.28 0.09 0.42 0.15 0.16 0.06 0.32 0.1 0.48 0.16 0.2 0.06 0.42 0.07 0.61 0.16 0.18 0.07 0.36 0.12 0.53 0.18 0.2 0.07 0.39 0.15 0.6 0.2 0.18 0.05 0.35 0.11 0.51 0.2 0.18 0.08 0.35 0.15 0.52 0.22 0.17 0.05 0.33 0.11 0.5 0.16s0.36 0.08 0.53 0.15c0.15 0.07 0.31 0.13 0.47 0.18 0.19 0.04 0.37 0.08 0.55 0.1 0.2 0.03 0.4 0.07 0.58 0.16 0.18 0.06 0.38 0.09 0.55 0.18 0.17 0.08 0.32 0.18 0.46 0.31s0.28 0.28 0.44 0.39c0.17 0.13 0.34 0.27 0.5 0.42 0.14 0.13 0.3 0.23 0.46 0.34 0.15 0.11 0.31 0.21 0.47 0.32 0.13 0.08 0.27 0.16 0.42 0.22 0.16 0.05 0.3 0.13 0.44 0.2 0.18 0.09 0.34 0.19 0.5 0.3l-1.31 0.03z"/>
      <path id="path4236" style="stroke-linejoin:round;stroke:#000000;stroke-width:1.5638;fill:#ffffff" d="m440.46 548.01c0.1 0.1 0.21 0.18 0.32 0.26 0.09 0.08 0.18 0.16 0.27 0.23 0.08 0.07 0.18 0.13 0.25 0.21 0.06 0.08 0.13 0.15 0.2 0.22 0.06 0.06 0.13 0.13 0.2 0.18 0.07 0.06 0.14 0.11 0.21 0.17 0.05 0.07 0.13 0.11 0.19 0.18 0.04 0.05 0.09 0.08 0.13 0.12 0.03 0.03 0.05 0.07 0.08 0.1 0.07 0.09 0.14 0.18 0.22 0.26 0.06 0.08 0.14 0.15 0.21 0.22 0.08 0.08 0.13 0.17 0.2 0.26s0.14 0.18 0.22 0.27c0.09 0.07 0.15 0.18 0.22 0.27s0.14 0.19 0.22 0.28c0.05 0.08 0.13 0.13 0.2 0.19 0.09 0.05 0.16 0.12 0.23 0.19s0.15 0.12 0.23 0.18 0.16 0.11 0.25 0.15 0.17 0.1 0.26 0.15c0.08 0.05 0.16 0.11 0.24 0.17l0.27 0.18c0.1 0.07 0.19 0.13 0.29 0.2 0.09 0.07 0.19 0.13 0.29 0.2 0.08 0.06 0.16 0.11 0.24 0.17 0.09 0.06 0.17 0.14 0.25 0.21 0.08 0.1 0.16 0.2 0.23 0.3 0.05 0.1 0.14 0.16 0.21 0.24 0.07 0.09 0.13 0.19 0.18 0.29 0.06 0.12 0.11 0.26 0.16 0.39 0.04 0.13 0.09 0.26 0.14 0.39 0.04 0.15 0.1 0.28 0.17 0.42 0.04 0.09 0.08 0.18 0.13 0.27 0.05 0.1 0.12 0.19 0.16 0.28 0.05 0.12 0.12 0.21 0.19 0.31 0.1 0.12 0.15 0.25 0.24 0.36 0.08 0.12 0.17 0.23 0.27 0.32 0.08 0.09 0.14 0.19 0.21 0.28 0.06 0.09 0.14 0.17 0.22 0.25 0.07 0.08 0.15 0.14 0.21 0.21 0.04 0.07 0.08 0.14 0.13 0.21l-0.65-0.01c-0.04-0.06-0.08-0.14-0.13-0.2-0.07-0.07-0.13-0.14-0.2-0.21-0.08-0.08-0.16-0.16-0.23-0.26-0.06-0.09-0.12-0.18-0.2-0.26-0.1-0.11-0.19-0.22-0.28-0.33-0.08-0.12-0.13-0.25-0.23-0.36-0.07-0.1-0.14-0.21-0.19-0.32-0.05-0.1-0.12-0.19-0.16-0.28-0.05-0.09-0.09-0.19-0.13-0.28-0.07-0.14-0.12-0.28-0.17-0.42-0.05-0.13-0.11-0.26-0.14-0.39-0.05-0.14-0.1-0.27-0.17-0.39-0.05-0.09-0.1-0.19-0.17-0.27-0.08-0.07-0.16-0.15-0.22-0.24-0.07-0.11-0.14-0.21-0.23-0.29-0.08-0.07-0.15-0.15-0.24-0.2-0.08-0.06-0.17-0.12-0.25-0.17-0.09-0.07-0.19-0.14-0.29-0.2-0.09-0.07-0.19-0.14-0.29-0.2-0.09-0.06-0.17-0.13-0.26-0.19-0.08-0.05-0.17-0.11-0.25-0.16s-0.17-0.1-0.26-0.14c-0.09-0.05-0.17-0.11-0.24-0.16-0.08-0.06-0.16-0.12-0.24-0.19-0.07-0.07-0.15-0.13-0.23-0.19-0.07-0.06-0.14-0.12-0.2-0.2-0.07-0.1-0.14-0.19-0.22-0.28-0.06-0.1-0.13-0.19-0.22-0.28-0.07-0.08-0.15-0.17-0.21-0.27-0.07-0.08-0.13-0.17-0.21-0.25-0.07-0.07-0.14-0.14-0.21-0.22-0.08-0.08-0.15-0.17-0.22-0.26-0.06-0.08-0.14-0.14-0.21-0.22-0.07-0.05-0.13-0.11-0.19-0.17-0.07-0.06-0.15-0.11-0.21-0.17-0.07-0.06-0.13-0.12-0.19-0.18-0.08-0.07-0.14-0.15-0.21-0.23-0.07-0.07-0.17-0.13-0.25-0.2-0.09-0.07-0.17-0.15-0.25-0.22-0.12-0.09-0.24-0.18-0.35-0.28h0.66z"/>
      <path id="path4238" style="stroke-linejoin:round;stroke:#000000;stroke-width:1.5638;fill:#ffffff" d="m432.49 539.68c0.14 0.11 0.29 0.22 0.44 0.3 0.05 0.03 0.1 0.05 0.15 0.07 0.33 0.15 0.67 0.29 0.99 0.45 0.07 0.03 0.13 0.06 0.2 0.09 0.13 0.05 0.35 0.13 0.48 0.18 0.31 0.12 0.61 0.23 0.92 0.34 0.77 0.27 1.55 0.5 2.32 0.77 0.59 0.17 1.16 0.39 1.74 0.58 0.26 0.09 0.52 0.17 0.77 0.26 0.38 0.14 0.78 0.24 1.16 0.37-1.59-0.44-0.74-0.18-0.37-0.13 0.08 0.02 0.21 0.03 0.3 0.03 0.11 0.02 0.22 0.01 0.33 0.01l0.92 0.38c-0.11 0-0.23 0-0.35-0.01-0.22-0.02-0.07-0.01-0.31-0.03-0.05 0-0.1 0-0.15-0.01s-0.09-0.02-0.14-0.04c-0.77-0.17 2.06 0.54-1.21-0.3-0.35-0.11-0.7-0.23-1.04-0.36-0.83-0.29-1.65-0.57-2.49-0.84-0.78-0.27-1.57-0.51-2.36-0.78-0.56-0.19-1.12-0.38-1.66-0.62-0.34-0.16-0.67-0.3-1.01-0.45-0.05-0.03-0.11-0.05-0.16-0.08-0.17-0.09-0.33-0.22-0.49-0.31l1.02 0.13z"/>
      <path id="path4240" style="stroke-linejoin:round;stroke:#000000;stroke-width:1.5638;fill:#ffffff" d="m434.98 536.33c0.14 0.11 0.28 0.22 0.44 0.3 0.04 0.03 0.1 0.05 0.15 0.07 0.33 0.15 0.66 0.29 0.99 0.45 0.06 0.03 0.13 0.06 0.19 0.09 0.13 0.06 0.36 0.14 0.49 0.18 0.3 0.12 0.6 0.23 0.91 0.34 0.77 0.27 1.55 0.5 2.32 0.77 0.59 0.18 1.16 0.39 1.74 0.58 0.26 0.09 0.52 0.17 0.78 0.26 0.38 0.14 0.77 0.24 1.15 0.37-1.59-0.43-0.73-0.18-0.37-0.12 0.09 0.01 0.22 0.02 0.3 0.03 0.11 0.01 0.22 0.01 0.33 0l0.93 0.38c-0.12 0-0.24 0-0.36-0.01-0.22-0.02-0.07-0.01-0.3-0.03-0.05 0-0.11 0-0.16-0.01-0.04-0.01-0.09-0.02-0.13-0.03-0.78-0.18 2.05 0.53-1.22-0.31-0.35-0.11-0.7-0.23-1.04-0.36-0.82-0.29-1.65-0.57-2.48-0.84-0.79-0.27-1.58-0.5-2.36-0.78-0.56-0.19-1.13-0.38-1.67-0.62-0.33-0.16-0.67-0.3-1-0.45-0.06-0.03-0.12-0.05-0.17-0.08-0.17-0.09-0.32-0.21-0.49-0.31l1.03 0.13z"/>
      <path id="path4242" style="stroke-linejoin:round;stroke:#000000;stroke-width:1.5033;fill:#ffffff" d="m437.24 533.24c0.14 0.1 0.28 0.2 0.43 0.29 0.04 0.02 0.09 0.04 0.14 0.06 0.32 0.14 0.64 0.28 0.95 0.43 0.07 0.03 0.13 0.06 0.19 0.09 0.13 0.05 0.34 0.13 0.47 0.18 0.29 0.1 0.58 0.21 0.88 0.31 0.74 0.26 1.49 0.49 2.23 0.75 0.56 0.17 1.11 0.37 1.67 0.56l0.75 0.24c0.36 0.14 0.74 0.24 1.11 0.36-1.53-0.42-0.71-0.17-0.36-0.12 0.08 0.01 0.21 0.02 0.29 0.03 0.1 0.01 0.21 0.01 0.31 0.01l0.9 0.36c-0.12 0-0.23 0-0.34-0.01-0.22-0.02-0.08 0-0.3-0.02-0.05-0.01-0.1-0.01-0.15-0.02-0.04-0.01-0.08-0.02-0.13-0.03-0.75-0.17 1.98 0.52-1.17-0.3-0.33-0.1-0.67-0.22-1-0.34-0.79-0.28-1.58-0.55-2.38-0.81-0.76-0.26-1.52-0.48-2.27-0.74-0.54-0.19-1.09-0.37-1.61-0.61l-0.96-0.42c-0.05-0.03-0.11-0.05-0.16-0.08-0.16-0.09-0.31-0.21-0.47-0.3l0.98 0.13z"/>
      <path id="path4244" style="stroke-linejoin:round;stroke:#000000;stroke-width:1.5638;fill:#ffffff" d="m439.69 530.2c0.13 0.09 0.26 0.2 0.41 0.27 0.04 0.02 0.09 0.04 0.14 0.06 0.3 0.13 0.61 0.26 0.91 0.39 0.06 0.03 0.12 0.06 0.19 0.09 0.12 0.05 0.33 0.12 0.45 0.16 0.28 0.1 0.56 0.19 0.85 0.29 0.71 0.23 1.44 0.42 2.16 0.66 0.54 0.15 1.08 0.33 1.62 0.5 0.24 0.07 0.48 0.14 0.72 0.21 0.35 0.13 0.72 0.21 1.08 0.32-1.49-0.36-0.69-0.14-0.35-0.11 0.08 0.01 0.2 0.02 0.28 0.02 0.1 0.01 0.2 0 0.31 0l0.86 0.33c-0.11 0-0.22 0.01-0.33 0-0.21-0.01-0.07 0-0.29-0.01-0.05-0.01-0.1 0-0.15-0.01l-0.12-0.03c-0.73-0.14 1.91 0.45-1.14-0.25-0.33-0.09-0.65-0.2-0.97-0.31-0.77-0.25-1.53-0.49-2.31-0.72-0.73-0.23-1.47-0.43-2.2-0.66-0.52-0.16-1.04-0.33-1.55-0.54-0.3-0.14-0.62-0.26-0.92-0.4-0.06-0.02-0.11-0.04-0.16-0.07-0.16-0.08-0.29-0.2-0.45-0.28l0.96 0.09z"/>
      <path id="path4246" style="stroke-linejoin:round;stroke:#000000;stroke-width:1.5638;fill:#ffffff" d="m442.17 526.84c0.13 0.09 0.26 0.19 0.4 0.27 0.05 0.02 0.1 0.04 0.14 0.06 0.31 0.13 0.62 0.25 0.92 0.39l0.18 0.09c0.12 0.05 0.33 0.12 0.45 0.16 0.29 0.1 0.57 0.19 0.85 0.29 0.72 0.23 1.45 0.42 2.17 0.65 0.54 0.16 1.07 0.34 1.61 0.51 0.24 0.07 0.48 0.14 0.72 0.21 0.36 0.13 0.72 0.21 1.08 0.32-1.48-0.36-0.69-0.14-0.34-0.11 0.07 0.01 0.2 0.02 0.28 0.02 0.1 0.01 0.2 0 0.3 0l0.87 0.33c-0.11 0-0.23 0.01-0.34 0-0.21-0.01-0.07 0-0.28-0.01-0.05-0.01-0.1-0.01-0.15-0.01-0.04-0.01-0.09-0.02-0.13-0.03-0.73-0.14 1.92 0.45-1.13-0.25-0.33-0.09-0.65-0.2-0.97-0.31-0.77-0.25-1.54-0.49-2.31-0.72-0.73-0.23-1.47-0.43-2.2-0.66-0.52-0.16-1.05-0.33-1.55-0.54-0.31-0.14-0.62-0.26-0.93-0.4-0.05-0.02-0.1-0.04-0.15-0.07-0.16-0.08-0.3-0.2-0.45-0.29l0.96 0.1z"/>
      <path id="path4248" style="stroke-linejoin:round;stroke:#000000;stroke-width:1.5638;fill:#ffffff" d="m444.16 523.53c0.12 0.1 0.25 0.2 0.4 0.28 0.04 0.02 0.09 0.04 0.14 0.06 0.31 0.13 0.61 0.25 0.91 0.39 0.07 0.03 0.13 0.06 0.19 0.08 0.12 0.05 0.33 0.12 0.45 0.17 0.28 0.09 0.56 0.19 0.85 0.28 0.71 0.24 1.44 0.43 2.16 0.66 0.55 0.15 1.08 0.34 1.62 0.5 0.24 0.08 0.48 0.15 0.72 0.22 0.35 0.12 0.72 0.21 1.08 0.31-1.49-0.35-0.69-0.13-0.35-0.1 0.08 0.01 0.2 0.01 0.28 0.02 0.1 0.01 0.21 0 0.31-0.01l0.86 0.33c-0.11 0.01-0.22 0.02-0.33 0.01-0.21-0.01-0.07 0-0.29-0.02h-0.15l-0.12-0.03c-0.73-0.14 1.92 0.44-1.14-0.25-0.33-0.1-0.65-0.2-0.97-0.31-0.76-0.25-1.53-0.49-2.31-0.72-0.73-0.23-1.47-0.43-2.19-0.66-0.53-0.17-1.05-0.33-1.55-0.55l-0.93-0.39c-0.05-0.02-0.11-0.05-0.16-0.07-0.15-0.09-0.29-0.2-0.45-0.29l0.97 0.09z"/>
      <path id="path4250" style="stroke-linejoin:round;stroke:#000000;stroke-width:1.5638;fill:#ffffff" d="m446.93 520.22c0.12 0.09 0.24 0.19 0.37 0.25 0.04 0.03 0.09 0.04 0.13 0.06 0.29 0.12 0.58 0.23 0.87 0.35 0.05 0.03 0.11 0.06 0.17 0.08 0.11 0.04 0.31 0.11 0.42 0.14 0.27 0.09 0.53 0.18 0.8 0.26 0.68 0.2 1.37 0.37 2.04 0.57 0.52 0.13 1.02 0.3 1.53 0.44 0.23 0.06 0.46 0.13 0.68 0.19 0.34 0.11 0.68 0.18 1.02 0.27-1.41-0.3-0.65-0.11-0.33-0.09 0.08 0.01 0.2 0.01 0.27 0.01 0.1 0 0.2-0.01 0.3-0.01l0.81 0.29c-0.11 0.01-0.22 0.02-0.32 0.02-0.2-0.01-0.07 0-0.27-0.01h-0.14c-0.04-0.01-0.08-0.02-0.12-0.02-0.69-0.12 1.81 0.37-1.08-0.22-0.31-0.08-0.61-0.17-0.91-0.27-0.73-0.21-1.45-0.43-2.18-0.62-0.69-0.21-1.39-0.38-2.08-0.58-0.49-0.14-0.99-0.29-1.46-0.48-0.29-0.13-0.58-0.24-0.87-0.36-0.05-0.02-0.1-0.04-0.15-0.07-0.15-0.07-0.27-0.18-0.42-0.26l0.92 0.06z"/>
      <path id="path4252" style="stroke-linejoin:round;stroke:#000000;stroke-width:1.5638;fill:#ffffff" d="m449.4 516.85c0.12 0.09 0.24 0.19 0.37 0.26 0.05 0.02 0.09 0.03 0.13 0.05 0.29 0.12 0.58 0.23 0.87 0.36 0.05 0.02 0.11 0.05 0.17 0.07 0.11 0.05 0.31 0.11 0.42 0.14 0.27 0.09 0.54 0.18 0.8 0.26 0.68 0.2 1.37 0.37 2.05 0.57 0.51 0.13 1.01 0.3 1.52 0.44 0.23 0.07 0.46 0.13 0.68 0.19 0.34 0.11 0.68 0.18 1.02 0.27-1.4-0.3-0.65-0.11-0.32-0.09 0.07 0.01 0.19 0.01 0.26 0.01 0.1 0 0.2 0 0.3-0.01l0.81 0.29c-0.11 0.01-0.21 0.02-0.32 0.02-0.2-0.01-0.07 0-0.27-0.01h-0.14c-0.04-0.01-0.08-0.02-0.12-0.02-0.69-0.12 1.81 0.37-1.08-0.21-0.31-0.09-0.61-0.17-0.91-0.28-0.73-0.21-1.45-0.43-2.18-0.62-0.69-0.21-1.39-0.38-2.08-0.58-0.49-0.14-0.99-0.29-1.46-0.48-0.29-0.13-0.58-0.24-0.87-0.36l-0.15-0.06c-0.14-0.08-0.27-0.19-0.42-0.27l0.92 0.06z"/>
      <path id="path4254" style="stroke-linejoin:round;stroke:#000000;stroke-width:1.5638;fill:#ffffff" d="m451.4 513.55c0.12 0.1 0.24 0.19 0.38 0.26 0.04 0.02 0.08 0.04 0.13 0.06 0.28 0.11 0.57 0.22 0.86 0.35 0.06 0.02 0.11 0.05 0.17 0.07 0.11 0.05 0.31 0.11 0.42 0.15 0.27 0.08 0.54 0.17 0.8 0.25 0.68 0.21 1.37 0.37 2.05 0.58 0.51 0.13 1.01 0.29 1.52 0.43 0.23 0.07 0.46 0.13 0.69 0.19 0.33 0.11 0.68 0.18 1.01 0.28-1.4-0.3-0.65-0.12-0.32-0.09h0.26c0.1 0.01 0.2 0 0.3-0.01l0.81 0.29c-0.11 0.01-0.21 0.03-0.32 0.02h-0.27c-0.05-0.01-0.1 0-0.14-0.01-0.04 0-0.08-0.01-0.12-0.02-0.69-0.12 1.82 0.37-1.08-0.21-0.31-0.08-0.61-0.17-0.91-0.27-0.72-0.22-1.45-0.43-2.18-0.63-0.69-0.2-1.39-0.37-2.08-0.58-0.49-0.14-0.99-0.28-1.46-0.48-0.29-0.12-0.58-0.23-0.87-0.35-0.05-0.03-0.1-0.05-0.15-0.07-0.14-0.08-0.27-0.18-0.42-0.26l0.92 0.05z"/>
      <path id="path4256" style="stroke-linejoin:round;stroke:#000000;stroke-width:1.5638;fill:#ffffff" d="m453.7 510.41c0.12 0.09 0.24 0.18 0.38 0.25 0.04 0.02 0.08 0.04 0.13 0.06 0.29 0.11 0.58 0.23 0.86 0.35 0.06 0.03 0.11 0.05 0.17 0.08 0.12 0.04 0.31 0.1 0.42 0.14 0.27 0.09 0.54 0.17 0.81 0.25 0.67 0.21 1.36 0.38 2.04 0.58 0.51 0.13 1.02 0.29 1.53 0.44 0.22 0.06 0.45 0.12 0.68 0.19 0.33 0.11 0.68 0.18 1.02 0.27-1.41-0.3-0.66-0.11-0.33-0.09 0.07 0.01 0.19 0.01 0.26 0.01 0.1 0 0.2-0.01 0.3-0.02l0.81 0.3c-0.1 0.01-0.21 0.02-0.32 0.01h-0.27-0.14l-0.12-0.03c-0.69-0.11 1.82 0.37-1.08-0.21-0.3-0.08-0.61-0.17-0.91-0.27-0.72-0.22-1.45-0.43-2.18-0.63-0.69-0.2-1.39-0.37-2.08-0.57-0.49-0.15-0.98-0.29-1.46-0.49-0.29-0.12-0.58-0.23-0.87-0.35-0.05-0.02-0.1-0.04-0.15-0.07-0.14-0.07-0.27-0.18-0.41-0.26l0.91 0.06z"/>
      <path id="path4258" style="stroke-linejoin:round;stroke:#000000;stroke-width:1.5638;fill:#ffffff" d="m456.17 507.04c0.12 0.09 0.24 0.18 0.38 0.25 0.04 0.02 0.09 0.04 0.13 0.06 0.29 0.11 0.58 0.23 0.86 0.35 0.06 0.03 0.12 0.06 0.17 0.08 0.12 0.04 0.31 0.1 0.43 0.14 0.26 0.09 0.53 0.17 0.8 0.25 0.67 0.21 1.36 0.38 2.04 0.58 0.52 0.13 1.02 0.3 1.53 0.44 0.22 0.06 0.45 0.12 0.68 0.19 0.33 0.11 0.68 0.18 1.02 0.27-1.41-0.3-0.66-0.11-0.33-0.09 0.07 0.01 0.19 0.01 0.27 0.01 0.09 0 0.19-0.01 0.29-0.02l0.81 0.3c-0.1 0.01-0.21 0.02-0.31 0.01h-0.28-0.14l-0.12-0.03c-0.69-0.11 1.82 0.38-1.07-0.21-0.31-0.08-0.62-0.17-0.92-0.27-0.72-0.21-1.45-0.43-2.18-0.62-0.69-0.21-1.39-0.38-2.07-0.58-0.5-0.15-0.99-0.29-1.46-0.48-0.29-0.13-0.59-0.24-0.88-0.36-0.05-0.02-0.1-0.04-0.14-0.07-0.15-0.07-0.28-0.18-0.42-0.26l0.91 0.06z"/>
      <path id="path4260" style="stroke-linejoin:round;stroke:#000000;stroke-width:1.164;fill:#ffffff" d="m471.16 492.57c-0.13 0.19-0.27 0.39-0.4 0.58-0.11 0.16-0.22 0.32-0.33 0.49-0.16 0.23-0.32 0.45-0.48 0.68-0.14 0.21-0.28 0.41-0.42 0.62-0.16 0.24-0.33 0.47-0.49 0.71-0.17 0.24-0.33 0.47-0.49 0.71-0.15 0.21-0.3 0.43-0.45 0.65-0.14 0.2-0.28 0.41-0.42 0.61-0.18 0.26-0.36 0.52-0.55 0.79-0.14 0.2-0.28 0.41-0.42 0.62-0.13 0.18-0.26 0.37-0.39 0.55-0.13 0.19-0.26 0.38-0.39 0.58-0.11 0.15-0.22 0.31-0.33 0.47-0.1 0.14-0.2 0.29-0.3 0.43-0.09 0.13-0.18 0.27-0.28 0.41-0.1 0.15-0.2 0.29-0.31 0.44-0.12 0.18-0.24 0.36-0.37 0.54-0.1 0.14-0.19 0.29-0.29 0.43-0.11 0.15-0.21 0.31-0.32 0.46-0.08 0.12-0.16 0.24-0.24 0.35-0.08 0.12-0.16 0.23-0.24 0.34-0.06 0.1-0.13 0.19-0.19 0.29-0.08 0.11-0.16 0.23-0.24 0.34s-0.15 0.22-0.23 0.33c-0.09 0.13-0.17 0.25-0.25 0.37-0.08 0.11-0.16 0.23-0.24 0.34-0.1 0.14-0.19 0.27-0.29 0.41-0.03 0.06-0.07 0.11-0.11 0.17l-0.35 0.36 0.12-0.18c0.1-0.13 0.19-0.26 0.28-0.39 0.08-0.12 0.16-0.23 0.24-0.35s0.17-0.24 0.25-0.36 0.15-0.23 0.23-0.34 0.16-0.23 0.24-0.34c0.06-0.1 0.13-0.19 0.19-0.29l0.24-0.33 0.24-0.36c0.11-0.15 0.22-0.31 0.32-0.46 0.1-0.14 0.2-0.29 0.3-0.43 0.12-0.18 0.25-0.36 0.37-0.54 0.1-0.15 0.2-0.29 0.31-0.44 0.09-0.14 0.19-0.27 0.28-0.41 0.1-0.14 0.2-0.29 0.3-0.43 0.1-0.16 0.21-0.32 0.32-0.48 0.14-0.19 0.27-0.38 0.4-0.57 0.13-0.18 0.25-0.37 0.38-0.55 0.15-0.21 0.29-0.42 0.44-0.63 0.18-0.26 0.36-0.52 0.54-0.78 0.14-0.21 0.28-0.41 0.42-0.62 0.15-0.21 0.3-0.43 0.45-0.65 0.16-0.23 0.33-0.47 0.49-0.71 0.16-0.23 0.32-0.47 0.49-0.71 0.14-0.2 0.28-0.41 0.43-0.62 0.15-0.22 0.3-0.44 0.46-0.67 0.11-0.16 0.22-0.32 0.33-0.48 0.13-0.2 0.27-0.39 0.4-0.58l0.35-0.37z"/>
      <path id="path4262" sodipodi:nodetypes="cscccc" style="stroke-linejoin:round;stroke:#000000;stroke-width:.764;fill:#000000" d="m465.82 508.82c8.99-7.55 9.85-9.42 7.65-11.98-0.87-1.02-2.54-3.31-4.32-1.32l1.84-2.44 5.64 7.38c-3.38 4.16-5.84 5.14-10.81 8.36z"/>
    </g>
  </g>
  <metadata>
    <rdf:RDF>
      <cc:Work>
        <dc:format>image/svg+xml</dc:format>
        <dc:type rdf:resource="http://purl.org/dc/dcmitype/StillImage"/>
        <cc:license rdf:resource="http://creativecommons.org/licenses/publicdomain/"/>
        <dc:publisher>
          <cc:Agent rdf:about="http://openclipart.org/">
            <dc:title>Openclipart</dc:title>
          </cc:Agent>
        </dc:publisher>
        <dc:title>two-edged sword</dc:title>
        <dc:date>2009-11-21T15:05:46</dc:date>
        <dc:description>Black and White two-edged sword</dc:description>
        <dc:source>https://openclipart.org/detail/28445/two-edged-sword-by-d4v1d</dc:source>
        <dc:creator>
          <cc:Agent>
            <dc:title>D4v1d</dc:title>
          </cc:Agent>
        </dc:creator>
        <dc:subject>
          <rdf:Bag>
            <rdf:li>tool</rdf:li>
            <rdf:li>unchecked</rdf:li>
            <rdf:li>war</rdf:li>
          </rdf:Bag>
        </dc:subject>
      </cc:Work>
      <cc:License rdf:about="http://creativecommons.org/licenses/publicdomain/">
        <cc:permits rdf:resource="http://creativecommons.org/ns#Reproduction"/>
        <cc:permits rdf:resource="http://creativecommons.org/ns#Distribution"/>
        <cc:permits rdf:resource="http://creativecommons.org/ns#DerivativeWorks"/>
      </cc:License>
    </rdf:RDF>
  </metadata>
</svg>